<?xml version="1.0" standalone="no"?>
<!DOCTYPE svg PUBLIC "-//W3C//DTD SVG 20010904//EN"
 "http://www.w3.org/TR/2001/REC-SVG-20010904/DTD/svg10.dtd">
<svg version="1.0" xmlns="http://www.w3.org/2000/svg"
 width="800.000000pt" height="500.000000pt" viewBox="0 0 800.000000 500.000000"
 preserveAspectRatio="xMidYMid meet">

<g transform="translate(0.000000,500.000000) scale(0.100000,-0.100000)"
fill="#000000" stroke="none">
<path d="M3924 3857 c-39 -34 -169 -145 -289 -247 -417 -354 -450 -383 -458
-402 -4 -11 -6 -298 -5 -637 l3 -616 833 -3 832 -2 0 634 0 635 -137 117 c-76
64 -192 163 -258 220 -290 248 -429 364 -439 364 -6 0 -43 -29 -82 -63z m67
-183 l-2 -186 -30 -26 c-21 -19 -32 -39 -36 -68 -4 -35 -11 -44 -39 -58 -26
-12 -34 -22 -34 -43 0 -16 -4 -33 -8 -40 -4 -6 -50 -27 -102 -47 -52 -20 -106
-44 -120 -54 -28 -21 -65 -82 -75 -124 l-7 -28 465 0 c256 0 468 4 471 8 7 11
-46 123 -65 139 -8 7 -64 32 -124 56 -108 42 -110 44 -121 83 -8 29 -18 43
-42 53 -28 13 -32 19 -32 53 0 38 -34 88 -60 88 -6 0 -10 66 -10 196 0 112 4
194 9 192 7 -2 266 -219 315 -263 6 -6 76 -66 156 -134 80 -67 182 -155 228
-194 l82 -71 0 -613 0 -613 -70 0 -70 0 -20 40 -20 40 40 0 40 0 0 294 0 295
-142 3 c-79 2 -278 1 -443 -2 l-300 -5 -3 -270 c-1 -148 0 -280 3 -292 4 -18
12 -23 40 -23 39 0 42 -8 20 -50 l-16 -30 -129 0 c-94 0 -130 3 -130 12 0 6 7
38 16 70 9 32 14 62 10 65 -3 4 -33 9 -66 11 l-60 4 0 42 c0 36 6 48 45 86 30
29 42 47 35 54 -7 7 -22 -1 -45 -24 l-35 -34 0 117 c0 97 -3 117 -15 117 -11
0 -15 -12 -15 -50 0 -27 -3 -50 -6 -50 -4 0 -22 16 -41 35 -19 19 -38 35 -43
35 -22 0 -7 -24 40 -70 l50 -48 0 -106 0 -106 -64 0 c-83 0 -89 -8 -65 -85 10
-33 19 -63 19 -67 0 -5 -38 -8 -85 -8 l-85 0 0 608 c0 334 4 612 8 618 4 6 81
73 172 149 91 77 167 142 170 145 3 3 66 57 140 120 74 63 153 130 175 149 83
73 118 101 123 96 3 -3 4 -89 3 -191z m57 -236 c7 -7 12 -29 12 -50 l0 -38
-55 0 -55 0 0 32 c0 17 7 40 17 50 18 20 63 24 81 6z m80 -130 c7 -7 12 -16
12 -20 0 -4 -58 -8 -130 -8 -102 0 -130 3 -130 13 0 8 3 17 7 20 12 13 228 8
241 -5z m18 -69 c3 -6 34 -24 68 -39 l61 -28 -55 6 c-73 9 -338 9 -420 0 -60
-7 -63 -6 -40 7 14 8 32 14 40 15 9 0 31 11 50 25 33 22 44 24 162 25 82 0
129 -4 134 -11z m102 -93 c132 -21 155 -30 175 -72 9 -19 17 -37 17 -39 0 -3
-193 -5 -430 -5 -236 0 -430 2 -430 5 0 3 6 21 14 39 16 39 48 52 171 72 110
17 370 17 483 0z m-148 -786 l0 -270 -125 0 -125 0 0 270 0 270 125 0 125 0 0
-270z m310 190 l0 -80 -140 0 -140 0 0 80 0 80 140 0 140 0 0 -80z m278 -192
l2 -268 -125 0 -125 0 0 270 0 271 123 -3 122 -3 3 -267z m-278 -3 l0 -85
-140 0 -140 0 0 85 0 85 140 0 140 0 0 -85z m0 -190 l0 -75 -140 0 -140 0 0
75 0 75 140 0 140 0 0 -75z m-803 -72 c-3 -10 -11 -39 -18 -65 l-13 -48 -86 0
-86 0 -17 53 c-9 30 -17 59 -17 65 0 9 36 12 121 12 111 0 121 -2 116 -17z
m1013 -73 l20 -40 -370 0 -370 0 20 40 20 40 330 0 330 0 20 -40z"/>
<path d="M3410 2553 c1 -47 26 -86 40 -63 13 20 12 27 -6 66 -21 44 -34 43
-34 -3z"/>
<path d="M3611 2497 c-34 -17 -61 -56 -68 -102 l-6 -39 34 20 c40 24 72 74 67
108 -3 23 -5 25 -27 13z"/>
<path d="M3340 2379 l-25 -10 28 -15 c29 -16 87 -11 87 7 0 9 -43 30 -58 28
-4 0 -18 -5 -32 -10z"/>
<path d="M4034 2537 c-8 -36 -1 -100 14 -105 9 -3 12 14 12 62 0 65 -14 88
-26 43z"/>
<path d="M4257 2594 c-8 -8 1 -24 14 -24 5 0 9 7 9 15 0 15 -12 20 -23 9z"/>
<path d="M4480 2495 c0 -37 4 -65 10 -65 6 0 10 28 10 65 0 37 -4 65 -10 65
-6 0 -10 -28 -10 -65z"/>
<path d="M4252 2398 c6 -18 28 -21 28 -4 0 9 -7 16 -16 16 -9 0 -14 -5 -12
-12z"/>
<path d="M4261 2206 c-9 -10 -8 -15 4 -20 10 -4 15 1 15 14 0 24 -4 25 -19 6z"/>
<path d="M2630 2175 l0 -65 55 0 c64 0 74 17 13 22 -31 2 -44 8 -46 21 -3 14
4 17 37 17 51 0 54 18 4 22 -56 5 -55 28 1 28 25 0 46 5 46 10 0 6 -25 10 -55
10 l-55 0 0 -65z"/>
<path d="M2820 2219 c-17 -31 4 -49 56 -49 23 0 46 -5 50 -11 12 -19 -19 -30
-68 -24 -49 6 -67 -8 -25 -19 71 -19 139 12 117 54 -8 16 -21 20 -60 20 -38 0
-50 4 -50 15 0 11 12 15 51 15 31 0 48 4 44 10 -3 6 -28 10 -55 10 -40 0 -51
-4 -60 -21z"/>
<path d="M5080 2226 c0 -9 8 -12 25 -8 32 6 56 -4 50 -20 -3 -7 -21 -24 -40
-37 -52 -35 -46 -51 20 -51 30 0 55 5 55 10 0 6 -17 10 -37 10 l-37 0 33 28
c29 24 33 33 27 55 -6 24 -11 27 -51 27 -31 0 -45 -4 -45 -14z"/>
<path d="M5266 2218 c-34 -48 -4 -108 53 -108 54 0 87 60 57 105 -22 34 -87
36 -110 3z m92 -31 c2 -16 -2 -35 -9 -43 -29 -35 -85 9 -68 54 7 19 15 23 41
20 28 -2 34 -8 36 -31z"/>
<path d="M2620 2060 c0 -5 11 -10 25 -10 24 0 25 -3 25 -55 0 -70 18 -72 22
-2 3 45 6 52 26 55 46 7 20 22 -38 22 -33 0 -60 -4 -60 -10z"/>
<path d="M2818 2064 c-9 -9 -11 -86 -2 -108 9 -23 86 -22 107 2 20 22 22 75 3
91 -16 14 -98 26 -108 15z m84 -31 c35 -31 16 -73 -34 -73 -27 0 -28 2 -28 45
0 40 3 45 22 45 12 0 30 -7 40 -17z"/>
<path d="M5093 2063 c-26 -10 -12 -22 21 -16 51 8 54 -19 6 -57 -22 -18 -40
-36 -40 -41 0 -5 25 -9 55 -9 30 0 55 5 55 10 0 6 -16 10 -36 10 l-36 0 31 26
c17 14 31 34 31 45 0 29 -49 48 -87 32z"/>
<path d="M5278 2063 c-19 -5 -25 -23 -8 -23 18 0 11 -72 -7 -86 -16 -12 -12
-13 30 -14 26 0 47 5 47 10 0 6 -7 10 -15 10 -12 0 -15 13 -15 55 0 30 -3 54
-7 54 -5 -1 -16 -3 -25 -6z"/>
<path d="M2420 1480 l0 -130 25 0 c23 0 25 3 25 50 l0 50 80 0 c73 0 80 2 80
20 0 17 -8 19 -77 22 l-78 3 0 35 0 35 93 3 c84 2 92 4 92 22 0 19 -7 20 -120
20 l-120 0 0 -130z"/>
<path d="M2780 1525 c0 -112 14 -147 71 -169 61 -24 123 -14 161 26 27 29 28
34 28 129 0 99 0 99 -25 99 -25 0 -25 -1 -25 -90 0 -107 -14 -130 -80 -130
-65 0 -80 25 -80 132 0 87 0 88 -25 88 -25 0 -25 -1 -25 -85z"/>
<path d="M3190 1481 l0 -131 25 0 c22 0 25 4 25 35 0 35 0 35 44 35 40 0 47
-4 66 -35 17 -27 28 -35 51 -35 32 0 32 2 -3 52 -18 26 -18 26 8 45 39 28 44
90 11 129 -24 28 -29 29 -126 32 l-101 4 0 -131z m186 64 c18 -24 18 -28 -4
-55 -14 -18 -32 -24 -75 -28 l-57 -4 0 57 0 57 61 -4 c45 -3 65 -10 75 -23z"/>
<path d="M3587 1603 c-4 -3 -7 -62 -7 -130 l0 -124 28 3 27 3 0 98 c0 53 4 97
9 97 5 0 41 -17 80 -37 39 -21 72 -39 74 -40 6 -2 10 -36 11 -80 1 -39 3 -43
25 -43 l25 0 -2 128 c-2 123 -3 127 -24 130 -19 3 -23 -2 -24 -25 -1 -15 -1
-34 0 -40 3 -21 -18 -15 -95 27 -69 38 -112 49 -127 33z"/>
<path d="M4000 1481 l0 -131 30 0 31 0 -3 128 -3 127 -27 3 -28 3 0 -130z"/>
<path d="M4190 1590 c0 -17 7 -20 45 -20 l44 0 3 -107 3 -108 27 -3 27 -3 3
108 3 108 43 3 c34 3 42 7 42 23 0 18 -8 19 -120 19 -113 0 -120 -1 -120 -20z"/>
<path d="M4562 1511 c3 -89 6 -102 27 -125 49 -52 145 -58 199 -11 26 22 27
29 30 129 l4 106 -26 0 -26 0 0 -90 c0 -106 -14 -130 -77 -130 -67 1 -78 18
-81 125 -4 94 -4 95 -29 95 l-25 0 4 -99z"/>
<path d="M4970 1480 l0 -130 25 0 c22 0 25 4 25 35 0 35 0 35 44 35 40 0 47
-4 66 -35 17 -27 28 -35 51 -35 l30 0 -23 40 c-21 37 -21 42 -7 53 46 35 51
97 10 138 -28 28 -33 29 -125 29 l-96 0 0 -130z m163 81 c47 -18 46 -71 -2
-90 -15 -7 -46 -11 -69 -10 l-42 3 0 53 0 53 44 0 c25 0 56 -4 69 -9z"/>
<path d="M5362 1480 l1 -130 113 0 c107 0 114 1 114 20 0 18 -7 20 -85 20
l-85 0 0 40 0 40 75 0 c68 0 75 2 75 20 0 18 -7 20 -75 20 l-75 0 0 30 0 30
85 0 c78 0 85 2 85 20 0 19 -7 20 -114 20 l-114 0 0 -130z"/>
<path d="M2950 1041 c0 -46 5 -83 11 -86 16 -11 21 0 21 49 l1 46 53 0 53 0 3
-47 c2 -35 7 -48 18 -48 12 0 16 17 18 83 3 77 2 82 -18 82 -13 0 -20 -7 -20
-20 0 -17 -7 -20 -51 -20 -42 0 -52 3 -56 20 -3 11 -12 20 -19 20 -11 0 -14
-18 -14 -79z"/>
<path d="M4040 1035 l0 -85 33 0 c83 0 137 36 137 90 -1 51 -44 80 -119 80
l-51 0 0 -85z m108 49 c15 -10 22 -25 22 -49 0 -39 -20 -55 -69 -55 -31 0 -31
0 -31 53 0 30 3 57 7 60 11 12 48 7 71 -9z"/>
<path d="M3232 1055 c-33 -42 -12 -90 43 -101 52 -9 95 19 95 64 0 60 -99 87
-138 37z m93 -8 c13 -10 16 -21 11 -40 -5 -23 -12 -27 -41 -27 -46 0 -64 31
-35 60 23 23 39 25 65 7z"/>
<path d="M3460 1013 c0 -47 3 -64 13 -61 6 3 13 25 15 50 2 37 7 47 24 51 39
11 58 -9 58 -58 0 -33 4 -45 15 -45 11 0 15 12 15 45 0 52 24 74 60 55 15 -8
20 -21 20 -55 0 -33 4 -45 15 -45 11 0 15 12 15 48 0 73 -13 80 -142 80 l-108
-1 0 -64z"/>
<path d="M3822 1064 c-14 -9 -22 -26 -22 -43 0 -47 53 -78 110 -66 41 9 28 25
-19 25 -22 0 -44 6 -51 15 -11 13 -5 15 49 15 67 0 78 13 41 50 -24 24 -77 26
-108 4z m84 -19 c17 -13 15 -14 -31 -14 -46 0 -48 1 -31 14 11 8 25 15 31 15
6 0 20 -7 31 -15z"/>
<path d="M4307 1062 c-28 -30 -22 -75 12 -95 32 -19 78 -22 101 -7 13 8 13 10
0 14 -8 3 -33 7 -54 8 -22 2 -41 9 -44 16 -3 9 13 12 57 12 48 0 61 3 61 15 0
48 -98 75 -133 37z m89 -17 c17 -13 15 -14 -31 -14 -46 0 -48 1 -31 14 11 8
25 15 31 15 6 0 20 -7 31 -15z"/>
<path d="M4541 1061 c-54 -54 17 -134 93 -105 29 11 17 24 -22 24 -42 0 -62
14 -62 42 0 20 38 39 70 35 10 -1 20 3 22 8 2 6 -16 11 -39 13 -32 2 -47 -2
-62 -17z"/>
<path d="M4752 1055 c-33 -42 -12 -90 43 -101 52 -9 95 19 95 64 0 60 -99 87
-138 37z m93 -8 c13 -10 16 -21 11 -40 -5 -23 -12 -27 -41 -27 -46 0 -64 31
-35 60 23 23 39 25 65 7z"/>
<path d="M4980 1014 c0 -48 3 -65 13 -62 6 3 13 24 15 47 3 35 8 44 29 52 32
12 23 23 -23 26 l-34 2 0 -65z"/>
</g>
</svg>
